<?xml version="1.0" encoding="UTF-8"?>
<svg xmlns="http://www.w3.org/2000/svg" viewBox="0 0 500 500">
  <defs>
    <style>
      .cls-1 {
        fill: #f9f9f9;
      }

      .cls-2 {
        fill: none;
        stroke: #000;
        stroke-linecap: round;
        stroke-linejoin: round;
        stroke-width: 2px;
      }
    </style>
  </defs>
  <g id="Layer_1" data-name="Layer 1">
    <rect class="cls-1" y="0" width="500" height="500"/>
  </g>
  <g id="Layer_2" data-name="Layer 2">
    <g>
      <path d="m109.98,320.04v-1.52h21.88v1.52h-10.08v27.04h-1.76v-27.04h-10.04Z"/>
      <path d="m135.06,318.52v12.4h.08c1.15-3.25,3.6-4.88,7.36-4.88,1.68,0,3.08.32,4.2.96.93.53,1.65,1.28,2.16,2.24.43.77.71,1.69.84,2.76.05.4.09.83.12,1.28v13.8h-1.52v-13.4c0-.19-.01-.35-.04-.48,0-.37-.03-.72-.08-1.04-.13-.85-.36-1.6-.68-2.24-.43-.77-1.01-1.37-1.76-1.8-.88-.51-1.97-.76-3.28-.76-2.29,0-4.11.81-5.44,2.44-1.31,1.55-1.96,3.6-1.96,6.16v11.12h-1.52v-28.56h1.52Z"/>
      <path d="m154.66,322.64v-4.12h1.52v4.12h-1.52Zm0,24.44v-20.56h1.52v20.56h-1.52Z"/>
      <path d="m161.66,337c-.05,2.59.56,4.73,1.84,6.44,1.39,1.87,3.29,2.8,5.72,2.8,4.13,0,6.59-2.04,7.36-6.12h1.52c-.85,4.96-3.81,7.44-8.88,7.44-2.91,0-5.19-1.03-6.84-3.08-1.55-1.92-2.31-4.36-2.28-7.32-.03-3.04.71-5.6,2.2-7.68,1.68-2.29,3.99-3.44,6.92-3.44s5.41,1.09,7.04,3.28c1.47,2,2.13,4.56,2,7.68h-16.6Zm15.08-1.32c-.05-2.29-.73-4.23-2.04-5.8-1.41-1.68-3.24-2.52-5.48-2.52s-3.96.88-5.4,2.64c-1.28,1.57-2,3.47-2.16,5.68h15.08Zm-6.76-17.64l4.6,5.6h-1.52l-3.88-4.6-3.88,4.6h-1.52l4.6-5.6h1.6Zm7.16-4.48h2.04l-5.36,5.6h-1.48l4.8-5.6Z"/>
      <path d="m189.3,327.84h-4.48v14.36c0,1.55.39,2.56,1.16,3.04.59.4,1.68.57,3.28.52v1.32c-.88.05-1.63.04-2.24-.04-.77-.08-1.43-.28-1.96-.6-1.25-.72-1.84-2.13-1.76-4.24v-14.36h-3.8v-1.32h3.8v-6.4h1.52v6.4h4.48v1.32Z"/>
      <path d="m203.3,318.52h1.52v18.92l12.68-10.92h2.2l-9,7.68,9.64,12.88h-2.08l-8.76-11.72-4.68,3.96v7.76h-1.52v-28.56Z"/>
      <path d="m222.38,337c-.05,2.59.56,4.73,1.84,6.44,1.39,1.87,3.29,2.8,5.72,2.8,4.13,0,6.59-2.04,7.36-6.12h1.52c-.85,4.96-3.81,7.44-8.88,7.44-2.91,0-5.19-1.03-6.84-3.08-1.55-1.92-2.31-4.36-2.28-7.32-.03-3.04.71-5.6,2.2-7.68,1.68-2.29,3.99-3.44,6.92-3.44s5.41,1.09,7.04,3.28c1.47,2,2.13,4.56,2,7.68h-16.6Zm15.08-1.32c-.05-2.29-.73-4.23-2.04-5.8-1.41-1.68-3.24-2.52-5.48-2.52s-3.96.88-5.4,2.64c-1.28,1.57-2,3.47-2.16,5.68h15.08Zm-6.76-17.64l4.6,5.6h-1.52l-3.88-4.6-3.88,4.6h-1.52l4.6-5.6h1.6Zm7.16-4.48h2.04l-5.36,5.6h-1.48l4.8-5.6Z"/>
      <path d="m261.14,327.84h-4.48v14.36c0,1.55.39,2.56,1.16,3.04.59.4,1.68.57,3.28.52v1.32c-.88.05-1.63.04-2.24-.04-.77-.08-1.43-.28-1.96-.6-1.25-.72-1.84-2.13-1.76-4.24v-14.36h-3.8v-1.32h3.8v-6.4h1.52v6.4h4.48v1.32Z"/>
      <path d="m264.3,322.64v-4.12h1.52v4.12h-1.52Zm0,24.44v-20.56h1.52v20.56h-1.52Z"/>
      <path d="m270.66,326.52h1.52v4.4h.08c1.15-3.25,3.6-4.88,7.36-4.88,1.68,0,3.08.32,4.2.96.93.53,1.65,1.28,2.16,2.24.43.77.71,1.69.84,2.76.05.4.09.83.12,1.28v13.8h-1.52v-13.4c0-.19-.01-.35-.04-.48,0-.37-.03-.72-.08-1.04-.13-.85-.36-1.6-.68-2.24-.43-.77-1.01-1.37-1.76-1.8-.88-.51-1.97-.76-3.28-.76-2.29,0-4.11.81-5.44,2.44-1.31,1.55-1.96,3.6-1.96,6.16v11.12h-1.52v-20.56Z"/>
      <path d="m292.94,318.52v12.4h.08c1.15-3.25,3.6-4.88,7.36-4.88,1.68,0,3.08.32,4.2.96.93.53,1.65,1.28,2.16,2.24.43.77.71,1.69.84,2.76.05.4.09.83.12,1.28v13.8h-1.52v-13.4c0-.19-.01-.35-.04-.48,0-.37-.03-.72-.08-1.04-.13-.85-.36-1.6-.68-2.24-.43-.77-1.01-1.37-1.76-1.8-.88-.51-1.97-.76-3.28-.76-2.29,0-4.11.81-5.44,2.44-1.31,1.55-1.96,3.6-1.96,6.16v11.12h-1.52v-28.56h1.52Z"/>
      <path d="m340.3,326.52v20.32c-.03.45-.07.88-.12,1.28-.19,1.15-.52,2.16-1,3.04-.61,1.2-1.49,2.11-2.64,2.72-1.36.77-3.07,1.12-5.12,1.04-2.37,0-4.23-.47-5.56-1.4-1.55-1.09-2.37-2.76-2.48-5h1.52c.16,1.73.88,3.04,2.16,3.92,1.12.77,2.59,1.16,4.4,1.16,1.68,0,3.08-.32,4.2-.96.91-.51,1.63-1.23,2.16-2.16.4-.69.68-1.49.84-2.4.05-.35.09-.68.12-1v-5.44h-.08c-1.47,3.12-3.95,4.68-7.44,4.68-2.91,0-5.15-.97-6.72-2.92-1.44-1.81-2.16-4.23-2.16-7.24,0-2.85.76-5.23,2.28-7.12,1.63-2,3.83-3,6.6-3,3.76,0,6.24,1.59,7.44,4.76h.08v-4.28h1.52Zm-14.56,3.6c-1.23,1.65-1.84,3.67-1.84,6.04,0,2.53.63,4.61,1.88,6.24,1.33,1.73,3.16,2.6,5.48,2.6s4.24-.89,5.6-2.68c1.25-1.63,1.88-3.68,1.88-6.16s-.63-4.53-1.88-6.16c-1.36-1.76-3.23-2.64-5.6-2.64s-4.19.92-5.52,2.76Z"/>
      <path d="m345.14,322.64v-4.12h1.52v4.12h-1.52Zm0,24.44v-20.56h1.52v20.56h-1.52Z"/>
      <path d="m366.62,343.76v.4c.03.32.08.59.16.8.21.53.61.8,1.2.8.27,0,.64-.04,1.12-.12v1.28c-.59.11-1,.16-1.24.16-1.09,0-1.85-.29-2.28-.88-.32-.45-.48-1.16-.48-2.12v-1.08h-.08c-.51,1.31-1.41,2.37-2.72,3.2-1.41.91-3.05,1.36-4.92,1.36-2.11,0-3.73-.43-4.88-1.28-1.33-.99-2-2.49-2-4.52,0-2.13.84-3.71,2.52-4.72.67-.43,1.48-.75,2.44-.96.75-.19,1.61-.32,2.6-.4,3.31-.24,5.33-.6,6.08-1.08.67-.4,1-1.47,1-3.2,0-.29-.08-.63-.24-1-.19-.51-.48-.96-.88-1.36-.45-.51-1.03-.89-1.72-1.16-.83-.35-1.79-.52-2.88-.52-4,0-6.11,1.83-6.32,5.48h-1.52c.21-4.53,2.83-6.8,7.84-6.8,2.08,0,3.73.36,4.96,1.08,1.49.91,2.24,2.33,2.24,4.28v12.36Zm-1.52-8.36c-.51.56-1.52.95-3.04,1.16-.45.05-1.17.12-2.16.2-.99.11-1.73.19-2.24.24-3.76.43-5.64,2.01-5.64,4.76,0,2.99,1.8,4.48,5.4,4.48,1.6,0,2.97-.31,4.12-.92.96-.53,1.73-1.25,2.32-2.16.45-.72.79-1.51,1-2.36.08-.32.15-.64.2-.96l.04-.6v-3.84Zm-4.84-18.44c.67,0,1.23.19,1.7.56.47.37.7.92.7,1.64s-.19,1.23-.58,1.62c-.39.39-.82.73-1.3,1.02-.43.27-.76.51-1,.74-.24.23-.4.63-.48,1.22h-.84c.03-.4.11-.79.26-1.18s.47-.75.98-1.1c.64-.4,1.13-.75,1.46-1.06.33-.31.5-.73.5-1.26,0-.4-.15-.73-.44-1-.29-.27-.64-.4-1.04-.4-.53,0-.92.21-1.16.62-.24.41-.35.85-.32,1.3h-.92c-.05-.77.14-1.42.58-1.94.44-.52,1.07-.78,1.9-.78Z"/>
      <path d="m371.5,326.52h1.52v4.4h.08c1.15-3.25,3.6-4.88,7.36-4.88,1.68,0,3.08.32,4.2.96.93.53,1.65,1.28,2.16,2.24.43.77.71,1.69.84,2.76.05.4.09.83.12,1.28v13.8h-1.52v-13.4c0-.19-.01-.35-.04-.48,0-.37-.03-.72-.08-1.04-.13-.85-.36-1.6-.68-2.24-.43-.77-1.01-1.37-1.76-1.8-.88-.51-1.97-.76-3.28-.76-2.29,0-4.11.81-5.44,2.44-1.31,1.55-1.96,3.6-1.96,6.16v11.12h-1.52v-20.56Z"/>
      <path d="m134.84,374.44h2.8l6.48,18.12h.08l6.4-18.12h2.6l-7.72,20.64h-2.68l-7.96-20.64Z"/>
      <path d="m172.36,379.68v15.4h-2.32v-3.72h-.08c-1.39,2.88-3.76,4.32-7.12,4.32-2.53,0-4.39-.71-5.56-2.12-1.12-1.28-1.68-3.19-1.68-5.72v-13.4h2.52v13.44c.11,3.79,1.95,5.68,5.52,5.68,2.03,0,3.6-.85,4.72-2.56.99-1.52,1.48-3.43,1.48-5.72v-10.84h2.52v4.64c.35-.13.63-.28.84-.44.43-.29.73-.59.92-.88.19-.29.29-.55.32-.76l.04-.28v-.28h-.76v-2h2.12v1.84c0,.77-.23,1.39-.7,1.86-.47.47-.97.83-1.5,1.1-.45.19-.88.33-1.28.44Z"/>
      <path d="m194.44,379.28c.75,1.6,1.12,3.43,1.12,5.48,0,3.09-.84,5.65-2.52,7.68-1.81,2.16-4.23,3.24-7.24,3.24s-5.45-1.08-7.24-3.24c-1.68-2.03-2.52-4.59-2.52-7.68s.84-5.65,2.52-7.68c1.79-2.16,4.2-3.24,7.24-3.24s5.43,1.08,7.24,3.24c.4.48.76,1,1.08,1.56h.04c.43-.29.73-.59.9-.88.17-.29.27-.55.3-.76l.04-.28v-.28h-.72v-2h2.12v1.84c0,.77-.23,1.39-.7,1.86-.47.47-.98.83-1.54,1.1-.05,0-.09.01-.12.04Zm-14.08-.56c-1.2,1.65-1.8,3.67-1.8,6.04s.6,4.39,1.8,6.04c1.36,1.84,3.17,2.76,5.44,2.76s4.07-.92,5.4-2.76c1.23-1.65,1.84-3.67,1.84-6.04s-.61-4.39-1.84-6.04c-1.33-1.84-3.13-2.76-5.4-2.76s-4.08.92-5.44,2.76Zm6.8,22.56h-2.72v-2.72h2.72v2.72Z"/>
      <path d="m203.32,374.44h4.2v2.12h-4.2v13.92c0,1.73.68,2.64,2.04,2.72.72,0,1.44-.04,2.16-.12v2.16l-2.24.08c-1.68,0-2.85-.33-3.52-1-.67-.67-.99-1.88-.96-3.64v-14.12h-3.6v-2.12h3.6v-6.2h2.52v6.2Z"/>
      <path d="m226.28,374.44h4.2v2.12h-4.2v13.92c0,1.73.68,2.64,2.04,2.72.72,0,1.44-.04,2.16-.12v2.16l-2.24.08c-1.68,0-2.85-.33-3.52-1-.67-.67-.99-1.88-.96-3.64v-14.12h-3.6v-2.12h3.6v-6.2h2.52v6.2Z"/>
      <path d="m234.08,366.52h2.52v11.48h.08c1.07-2.77,3.27-4.16,6.6-4.16,2.77,0,4.76.71,5.96,2.12,1.07,1.28,1.6,3.23,1.6,5.84v13.28h-2.52v-12.88c0-1.95-.36-3.43-1.08-4.44-.85-1.2-2.24-1.8-4.16-1.8s-3.55.68-4.72,2.04c-1.12,1.28-1.71,2.96-1.76,5.04v12.04h-2.52v-28.56Z"/>
      <path d="m272.92,379.28c.75,1.6,1.12,3.43,1.12,5.48,0,3.09-.84,5.65-2.52,7.68-1.81,2.16-4.23,3.24-7.24,3.24s-5.45-1.08-7.24-3.24c-1.68-2.03-2.52-4.59-2.52-7.68s.84-5.65,2.52-7.68c1.79-2.16,4.2-3.24,7.24-3.24s5.43,1.08,7.24,3.24c.4.48.76,1,1.08,1.56h.04c.43-.29.73-.59.9-.88.17-.29.27-.55.3-.76l.04-.28v-.28h-.72v-2h2.12v1.84c0,.77-.23,1.39-.7,1.86-.47.47-.98.83-1.54,1.1-.05,0-.09.01-.12.04Zm-14.08-.56c-1.2,1.65-1.8,3.67-1.8,6.04s.6,4.39,1.8,6.04c1.36,1.84,3.17,2.76,5.44,2.76s4.07-.92,5.4-2.76c1.23-1.65,1.84-3.67,1.84-6.04s-.61-4.39-1.84-6.04c-1.33-1.84-3.13-2.76-5.4-2.76s-4.08.92-5.44,2.76Zm-.12-12.8h3.12l4.16,5.64h-2.04l-5.24-5.64Z"/>
      <path d="m277.84,366.52h2.52v4.04h-2.52v-4.04Zm0,7.92h2.52v20.64h-2.52v-20.64Z"/>
      <path d="m313.76,393.4c0,3.23-.69,5.65-2.08,7.28-1.49,1.76-3.85,2.64-7.08,2.64-2.27,0-4.17-.49-5.72-1.48-1.73-1.12-2.68-2.71-2.84-4.76h2.52c.24,1.41.97,2.48,2.2,3.2,1.01.61,2.29.92,3.84.92,4.43,0,6.64-2.6,6.64-7.8v-2.8h-.08c-1.28,2.83-3.47,4.24-6.56,4.24s-5.52-1.03-7.12-3.08c-1.47-1.84-2.2-4.35-2.2-7.52,0-2.96.81-5.4,2.44-7.32,1.71-2.05,4-3.08,6.88-3.08,3.15,0,5.33,1.39,6.56,4.16h.08v-3.56h2.52v18.96Zm-4.2-3.24c1.12-1.52,1.68-3.4,1.68-5.64s-.51-4.23-1.52-5.8c-1.2-1.84-2.91-2.76-5.12-2.76s-3.97.89-5.2,2.68c-1.07,1.55-1.6,3.51-1.6,5.88s.55,4.15,1.64,5.64c1.23,1.71,2.95,2.56,5.16,2.56,2.08,0,3.73-.85,4.96-2.56Z"/>
      <path d="m318.6,366.52h2.52v4.04h-2.52v-4.04Zm0,7.92h2.52v20.64h-2.52v-20.64Z"/>
      <path d="m325.72,380.76c.13-2.35.97-4.11,2.52-5.28,1.41-1.09,3.36-1.64,5.84-1.64,1.01,0,1.92.08,2.72.24.96.21,1.77.55,2.44,1,1.63,1.09,2.44,2.89,2.44,5.4v10.96c0,1.01.49,1.52,1.48,1.52.29,0,.56-.05.8-.16v2.12c-.53.11-1.08.16-1.64.16-1.17,0-1.99-.33-2.44-1-.35-.53-.52-1.4-.52-2.6h-.08c-.99,1.47-1.96,2.51-2.92,3.12-1.2.72-2.73,1.08-4.6,1.08-2.03,0-3.65-.49-4.88-1.48-1.36-1.04-2.04-2.56-2.04-4.56,0-2.53,1.17-4.28,3.52-5.24.88-.37,2.05-.68,3.52-.92.56-.08,1.23-.16,2-.24l2.04-.24c1.17-.11,1.97-.32,2.4-.64.56-.4.84-1.12.84-2.16,0-1.57-.52-2.71-1.56-3.4-.88-.56-2.16-.84-3.84-.84-3.57,0-5.41,1.6-5.52,4.8h-2.52Zm13.44,3.04h-.08c-.13.27-.44.48-.92.64l-1.2.28-3.32.52c-1.31.19-2.33.4-3.08.64-2.13.69-3.2,1.89-3.2,3.6,0,1.23.47,2.23,1.4,3,.88.72,1.95,1.08,3.2,1.08,2.03,0,3.71-.57,5.04-1.72,1.44-1.23,2.16-2.81,2.16-4.76v-3.28Z"/>
      <path d="m346.68,374.44h2.52v3.56h.08c1.07-2.77,3.27-4.16,6.6-4.16,2.77,0,4.76.71,5.96,2.12,1.07,1.28,1.6,3.23,1.6,5.84v13.28h-2.52v-12.88c0-1.95-.36-3.43-1.08-4.44-.85-1.2-2.24-1.8-4.16-1.8s-3.55.68-4.72,2.04c-1.12,1.28-1.71,2.96-1.76,5.04v12.04h-2.52v-20.64Z"/>
    </g>
    <g>
      <rect class="cls-2" x="183.33" y="96.36" width="133.33" height="160" rx="2.67" ry="2.67"/>
      <line class="cls-2" x1="191.68" y1="137.19" x2="308.32" y2="137.19"/>
      <g>
        <line class="cls-2" x1="300.32" y1="111.44" x2="308.32" y2="111.44"/>
        <line class="cls-2" x1="283.36" y1="111.44" x2="291.36" y2="111.44"/>
        <line class="cls-2" x1="300.32" y1="122.11" x2="308.32" y2="122.11"/>
        <line class="cls-2" x1="283.36" y1="122.11" x2="291.36" y2="122.11"/>
      </g>
      <rect class="cls-2" x="191.68" y="106.11" width="48" height="21.33" rx="2.67" ry="2.67"/>
      <g>
        <circle class="cls-2" cx="250" cy="196.77" r="46.67"/>
        <path class="cls-2" d="m274.41,196.77c0,7.23,2.13,13.92,5.81,19.55-6.43,9.89-17.57,16.45-30.21,16.45-19.87,0-36-16.13-36-36s16.13-36,36-36c12.64,0,23.79,6.56,30.21,16.45-3.68,5.63-5.81,12.35-5.81,19.55Z"/>
      </g>
      <circle class="cls-2" cx="261.52" cy="116.77" r="10.67"/>
    </g>
  </g>
</svg>