<?xml version="1.0" encoding="UTF-8"?>
<svg xmlns="http://www.w3.org/2000/svg" viewBox="0 0 500 500">
  <defs>
    <style>
      .cls-1 {
        fill: #f9f9f9;
      }

      .cls-2 {
        fill: none;
        stroke: #000;
        stroke-linecap: round;
        stroke-linejoin: round;
        stroke-width: 2px;
      }
    </style>
  </defs>
  <g id="Layer_1" data-name="Layer 1">
    <rect class="cls-1" y="0" width="500" height="500"/>
  </g>
  <g id="Layer_2" data-name="Layer 2">
    <g>
      <path d="m109.34,326.56c-.11-2.37-1-4.2-2.68-5.48-1.6-1.23-3.76-1.84-6.48-1.84-.88,0-1.75.09-2.6.28-.96.21-1.8.55-2.52,1-1.81,1.07-2.72,2.67-2.72,4.8s1.01,3.55,3.04,4.56c.8.37,1.84.72,3.12,1.04.51.13,1.09.27,1.76.4l1.8.36c1.47.29,2.67.57,3.6.84,1.25.4,2.29.85,3.12,1.36,2.03,1.31,3.04,3.21,3.04,5.72,0,1.41-.32,2.67-.96,3.76-.56.99-1.37,1.81-2.44,2.48-1.84,1.2-4.05,1.8-6.64,1.8-3.63,0-6.48-.77-8.56-2.32-2.37-1.73-3.53-4.33-3.48-7.8h1.76c-.16,2.93.8,5.15,2.88,6.64,1.81,1.31,4.28,1.96,7.4,1.96,2.08,0,3.88-.47,5.4-1.4,1.92-1.17,2.88-2.88,2.88-5.12s-1.01-3.73-3.04-4.8c-.83-.4-1.87-.77-3.12-1.12-.51-.13-1.09-.27-1.76-.4l-1.84-.36c-.72-.13-1.32-.27-1.8-.4-.64-.13-1.23-.28-1.76-.44-1.25-.37-2.29-.8-3.12-1.28-2.03-1.23-3.04-3.05-3.04-5.48s1.04-4.48,3.12-5.84c1.76-1.17,3.92-1.76,6.48-1.76,3.17,0,5.69.69,7.56,2.08,2.08,1.52,3.2,3.77,3.36,6.76h-1.76Z"/>
      <path d="m130.66,343.64v.4c.03.32.08.59.16.8.21.53.61.8,1.2.8.27,0,.64-.04,1.12-.12v1.28c-.59.11-1,.16-1.24.16-1.09,0-1.85-.29-2.28-.88-.32-.45-.48-1.16-.48-2.12v-1.08h-.08c-.51,1.31-1.41,2.37-2.72,3.2-1.41.91-3.05,1.36-4.92,1.36-2.11,0-3.73-.43-4.88-1.28-1.33-.99-2-2.49-2-4.52,0-2.13.84-3.71,2.52-4.72.67-.43,1.48-.75,2.44-.96.75-.19,1.61-.32,2.6-.4,3.31-.24,5.33-.6,6.08-1.08.67-.4,1-1.47,1-3.2,0-.29-.08-.63-.24-1-.19-.51-.48-.96-.88-1.36-.45-.51-1.03-.89-1.72-1.16-.83-.35-1.79-.52-2.88-.52-4,0-6.11,1.83-6.32,5.48h-1.52c.21-4.53,2.83-6.8,7.84-6.8,2.08,0,3.73.36,4.96,1.08,1.49.91,2.24,2.33,2.24,4.28v12.36Zm-1.52-8.36c-.51.56-1.52.95-3.04,1.16-.45.05-1.17.12-2.16.2-.99.11-1.73.19-2.24.24-3.76.43-5.64,2.01-5.64,4.76,0,2.99,1.8,4.48,5.4,4.48,1.6,0,2.97-.31,4.12-.92.96-.53,1.73-1.25,2.32-2.16.45-.72.79-1.51,1-2.36.08-.32.15-.64.2-.96l.04-.6v-3.84Zm-4.84-18.44c.67,0,1.23.19,1.7.56.47.37.7.92.7,1.64s-.19,1.23-.58,1.62c-.39.39-.82.73-1.3,1.02-.43.27-.76.51-1,.74-.24.23-.4.63-.48,1.22h-.84c.03-.4.11-.79.26-1.18s.47-.75.98-1.1c.64-.4,1.13-.75,1.46-1.06.33-.31.5-.73.5-1.26,0-.4-.15-.73-.44-1-.29-.27-.64-.4-1.04-.4-.53,0-.92.21-1.16.62-.24.41-.35.85-.32,1.3h-.92c-.05-.77.14-1.42.58-1.94.44-.52,1.07-.78,1.9-.78Z"/>
      <path d="m135.54,326.4h1.52v4.4h.08c1.15-3.25,3.6-4.88,7.36-4.88,1.68,0,3.08.32,4.2.96.93.53,1.65,1.28,2.16,2.24.43.77.71,1.69.84,2.76.05.4.09.83.12,1.28v13.8h-1.52v-13.4c0-.19-.01-.35-.04-.48,0-.37-.03-.72-.08-1.04-.13-.85-.36-1.6-.68-2.24-.43-.77-1.01-1.37-1.76-1.8-.88-.51-1.97-.76-3.28-.76-2.29,0-4.11.81-5.44,2.44-1.31,1.55-1.96,3.6-1.96,6.16v11.12h-1.52v-20.56Z"/>
      <path d="m173.02,336.16l-7.52-9.76h2.12l6.44,8.6,6.48-8.6h1.96l-7.44,9.76,8.12,10.8h-2.08l-7.04-9.64-7.2,9.64h-1.92l8.08-10.8Z"/>
      <path d="m201.46,346.96h-1.52v-4.4h-.08c-1.15,3.25-3.6,4.88-7.36,4.88-1.68,0-3.08-.32-4.2-.96-.93-.53-1.65-1.28-2.16-2.24-.43-.77-.71-1.69-.84-2.76-.05-.4-.09-.83-.12-1.28v-13.8h1.52v13.4c0,.19.01.35.04.48,0,.37.03.72.08,1.04.13.85.37,1.59.72,2.2.4.8.97,1.41,1.72,1.84.88.51,1.97.76,3.28.76,2.29,0,4.11-.81,5.44-2.44,1.31-1.55,1.96-3.6,1.96-6.16v-11.12h1.52v20.56Z"/>
      <path d="m221.06,343.64v.4c.03.32.08.59.16.8.21.53.61.8,1.2.8.27,0,.64-.04,1.12-.12v1.28c-.59.11-1,.16-1.24.16-1.09,0-1.85-.29-2.28-.88-.32-.45-.48-1.16-.48-2.12v-1.08h-.08c-.51,1.31-1.41,2.37-2.72,3.2-1.41.91-3.05,1.36-4.92,1.36-2.11,0-3.73-.43-4.88-1.28-1.33-.99-2-2.49-2-4.52,0-2.13.84-3.71,2.52-4.72.67-.43,1.48-.75,2.44-.96.75-.19,1.61-.32,2.6-.4,3.31-.24,5.33-.6,6.08-1.08.67-.4,1-1.47,1-3.2,0-.29-.08-.63-.24-1-.19-.51-.48-.96-.88-1.36-.45-.51-1.03-.89-1.72-1.16-.83-.35-1.79-.52-2.88-.52-4,0-6.11,1.83-6.32,5.48h-1.52c.21-4.53,2.83-6.8,7.84-6.8,2.08,0,3.73.36,4.96,1.08,1.49.91,2.24,2.33,2.24,4.28v12.36Zm-1.52-8.36c-.51.56-1.52.95-3.04,1.16-.45.05-1.17.12-2.16.2-.99.11-1.73.19-2.24.24-3.76.43-5.64,2.01-5.64,4.76,0,2.99,1.8,4.48,5.4,4.48,1.6,0,2.97-.31,4.12-.92.96-.53,1.73-1.25,2.32-2.16.45-.72.79-1.51,1-2.36.08-.32.15-.64.2-.96l.04-.6v-3.84Zm-5.08-17.36l4.64,5.6h-1.52l-3.92-4.6-3.84,4.6h-1.52l4.56-5.6h1.6Zm6.96-4.44h2.04l-5.36,5.6h-1.48l4.8-5.6Z"/>
      <path d="m233.5,327.72h-4.48v14.36c0,1.55.39,2.56,1.16,3.04.59.4,1.68.57,3.28.52v1.32c-.88.05-1.63.04-2.24-.04-.77-.08-1.43-.28-1.96-.6-1.25-.72-1.84-2.13-1.76-4.24v-14.36h-3.8v-1.32h3.8v-6.4h1.52v6.4h4.48v1.32Z"/>
      <path d="m248.94,318.4v12.4h.08c1.15-3.25,3.6-4.88,7.36-4.88,1.68,0,3.08.32,4.2.96.93.53,1.65,1.28,2.16,2.24.43.77.71,1.69.84,2.76.05.4.09.83.12,1.28v13.8h-1.52v-13.4c0-.19-.01-.35-.04-.48,0-.37-.03-.72-.08-1.04-.13-.85-.36-1.6-.68-2.24-.43-.77-1.01-1.37-1.76-1.8-.88-.51-1.97-.76-3.28-.76-2.29,0-4.11.81-5.44,2.44-1.31,1.55-1.96,3.6-1.96,6.16v11.12h-1.52v-28.56h1.52Z"/>
      <path d="m269.66,329.12c1.73-2.13,4.07-3.2,7-3.2s5.27,1.07,7,3.2c1.63,1.97,2.44,4.49,2.44,7.56s-.81,5.6-2.44,7.6c-1.73,2.11-4.07,3.16-7,3.16s-5.27-1.05-7-3.16c-1.63-2-2.44-4.53-2.44-7.6s.81-5.59,2.44-7.56Zm1.12,14.12c1.47,1.92,3.43,2.88,5.88,2.88s4.41-.96,5.88-2.88c1.36-1.76,2.04-3.95,2.04-6.56s-.68-4.8-2.04-6.56c-1.47-1.92-3.43-2.88-5.88-2.88s-4.41.96-5.88,2.88c-1.36,1.76-2.04,3.95-2.04,6.56s.68,4.8,2.04,6.56Z"/>
      <path d="m304.78,343.64v.4c.03.32.08.59.16.8.21.53.61.8,1.2.8.27,0,.64-.04,1.12-.12v1.28c-.59.11-1,.16-1.24.16-1.09,0-1.85-.29-2.28-.88-.32-.45-.48-1.16-.48-2.12v-1.08h-.08c-.51,1.31-1.41,2.37-2.72,3.2-1.41.91-3.05,1.36-4.92,1.36-2.11,0-3.73-.43-4.88-1.28-1.33-.99-2-2.49-2-4.52,0-2.13.84-3.71,2.52-4.72.67-.43,1.48-.75,2.44-.96.75-.19,1.61-.32,2.6-.4,3.31-.24,5.33-.6,6.08-1.08.67-.4,1-1.47,1-3.2,0-.29-.08-.63-.24-1-.19-.51-.48-.96-.88-1.36-.45-.51-1.03-.89-1.72-1.16-.83-.35-1.79-.52-2.88-.52-4,0-6.11,1.83-6.32,5.48h-1.52c.21-4.53,2.83-6.8,7.84-6.8,2.08,0,3.73.36,4.96,1.08,1.49.91,2.24,2.33,2.24,4.28v12.36Zm-1.52-8.36c-.51.56-1.52.95-3.04,1.16-.45.05-1.17.12-2.16.2-.99.11-1.73.19-2.24.24-3.76.43-5.64,2.01-5.64,4.76,0,2.99,1.8,4.48,5.4,4.48,1.6,0,2.97-.31,4.12-.92.96-.53,1.73-1.25,2.32-2.16.45-.72.79-1.51,1-2.36.08-.32.15-.64.2-.96l.04-.6v-3.84Zm-5.36-11.68l-5.28-5.56h2l4.76,5.56h-1.48Z"/>
      <path d="m309.66,326.4h1.52v4.4h.08c1.15-3.25,3.6-4.88,7.36-4.88,1.68,0,3.08.32,4.2.96.93.53,1.65,1.28,2.16,2.24.43.77.71,1.69.84,2.76.05.4.09.83.12,1.28v13.8h-1.52v-13.4c0-.19-.01-.35-.04-.48,0-.37-.03-.72-.08-1.04-.13-.85-.36-1.6-.68-2.24-.43-.77-1.01-1.37-1.76-1.8-.88-.51-1.97-.76-3.28-.76-2.29,0-4.11.81-5.44,2.44-1.31,1.55-1.96,3.6-1.96,6.16v11.12h-1.52v-20.56Z"/>
      <path d="m349.1,327.72h-4.48v14.36c0,1.55.39,2.56,1.16,3.04.59.4,1.68.57,3.28.52v1.32c-.88.05-1.63.04-2.24-.04-.77-.08-1.43-.28-1.96-.6-1.25-.72-1.84-2.13-1.76-4.24v-14.36h-3.8v-1.32h3.8v-6.4h1.52v6.4h4.48v1.32Z"/>
      <path d="m353.38,329.12c1.73-2.13,4.07-3.2,7-3.2s5.27,1.07,7,3.2c1.63,1.97,2.44,4.49,2.44,7.56s-.81,5.6-2.44,7.6c-1.73,2.11-4.07,3.16-7,3.16s-5.27-1.05-7-3.16c-1.63-2-2.44-4.53-2.44-7.6s.81-5.59,2.44-7.56Zm1.12,14.12c1.47,1.92,3.43,2.88,5.88,2.88s4.41-.96,5.88-2.88c1.36-1.76,2.04-3.95,2.04-6.56s-.68-4.8-2.04-6.56c-1.47-1.92-3.43-2.88-5.88-2.88s-4.41.96-5.88,2.88c-1.36,1.76-2.04,3.95-2.04,6.56s.68,4.8,2.04,6.56Z"/>
      <path d="m388.5,343.64v.4c.03.32.08.59.16.8.21.53.61.8,1.2.8.27,0,.64-.04,1.12-.12v1.28c-.59.11-1,.16-1.24.16-1.09,0-1.85-.29-2.28-.88-.32-.45-.48-1.16-.48-2.12v-1.08h-.08c-.51,1.31-1.41,2.37-2.72,3.2-1.41.91-3.05,1.36-4.92,1.36-2.11,0-3.73-.43-4.88-1.28-1.33-.99-2-2.49-2-4.52,0-2.13.84-3.71,2.52-4.72.67-.43,1.48-.75,2.44-.96.75-.19,1.61-.32,2.6-.4,3.31-.24,5.33-.6,6.08-1.08.67-.4,1-1.47,1-3.2,0-.29-.08-.63-.24-1-.19-.51-.48-.96-.88-1.36-.45-.51-1.03-.89-1.72-1.16-.83-.35-1.79-.52-2.88-.52-4,0-6.11,1.83-6.32,5.48h-1.52c.21-4.53,2.83-6.8,7.84-6.8,2.08,0,3.73.36,4.96,1.08,1.49.91,2.24,2.33,2.24,4.28v12.36Zm-1.52-8.36c-.51.56-1.52.95-3.04,1.16-.45.05-1.17.12-2.16.2-.99.11-1.73.19-2.24.24-3.76.43-5.64,2.01-5.64,4.76,0,2.99,1.8,4.48,5.4,4.48,1.6,0,2.97-.31,4.12-.92.96-.53,1.73-1.25,2.32-2.16.45-.72.79-1.51,1-2.36.08-.32.15-.64.2-.96l.04-.6v-3.84Zm-5.36-11.68l-5.28-5.56h2l4.76,5.56h-1.48Z"/>
      <path d="m393.38,326.4h1.52v4.4h.08c1.15-3.25,3.6-4.88,7.36-4.88,1.68,0,3.08.32,4.2.96.93.53,1.65,1.28,2.16,2.24.43.77.71,1.69.84,2.76.05.4.09.83.12,1.28v13.8h-1.52v-13.4c0-.19-.01-.35-.04-.48,0-.37-.03-.72-.08-1.04-.13-.85-.36-1.6-.68-2.24-.43-.77-1.01-1.37-1.76-1.8-.88-.51-1.97-.76-3.28-.76-2.29,0-4.11.81-5.44,2.44-1.31,1.55-1.96,3.6-1.96,6.16v11.12h-1.52v-20.56Z"/>
      <path d="m160.9,375.72h-4.48v14.36c0,1.55.39,2.56,1.16,3.04.59.4,1.68.57,3.28.52v1.32c-.88.05-1.63.04-2.24-.04-.77-.08-1.43-.28-1.96-.6-1.25-.72-1.84-2.13-1.76-4.24v-14.36h-3.8v-1.32h3.8v-6.4h1.52v6.4h4.48v1.32Z"/>
      <path d="m178.82,391.64v.4c.03.32.08.59.16.8.21.53.61.8,1.2.8.27,0,.64-.04,1.12-.12v1.28c-.59.11-1,.16-1.24.16-1.09,0-1.85-.29-2.28-.88-.32-.45-.48-1.16-.48-2.12v-1.08h-.08c-.51,1.31-1.41,2.37-2.72,3.2-1.41.91-3.05,1.36-4.92,1.36-2.11,0-3.73-.43-4.88-1.28-1.33-.99-2-2.49-2-4.52,0-2.13.84-3.71,2.52-4.72.67-.43,1.48-.75,2.44-.96.75-.19,1.61-.32,2.6-.4,3.31-.24,5.33-.6,6.08-1.08.67-.4,1-1.47,1-3.2,0-.29-.08-.63-.24-1-.19-.51-.48-.96-.88-1.36-.45-.51-1.03-.89-1.72-1.16-.83-.35-1.79-.52-2.88-.52-4,0-6.11,1.83-6.32,5.48h-1.52c.21-4.53,2.83-6.8,7.84-6.8,2.08,0,3.73.36,4.96,1.08,1.49.91,2.24,2.33,2.24,4.28v12.36Zm-1.52-8.36c-.51.56-1.52.95-3.04,1.16-.45.05-1.17.12-2.16.2-.99.11-1.73.19-2.24.24-3.76.43-5.64,2.01-5.64,4.76,0,2.99,1.8,4.48,5.4,4.48,1.6,0,2.97-.31,4.12-.92.96-.53,1.73-1.25,2.32-2.16.45-.72.79-1.51,1-2.36.08-.32.15-.64.2-.96l.04-.6v-3.84Zm-5.04,16.4h-1.92v-1.92h1.92v1.92Z"/>
      <path d="m184.06,370.52v-4.12h1.52v4.12h-1.52Zm0,24.44v-20.56h1.52v20.56h-1.52Z"/>
      <path d="m223.06,375.04c-.48-2.16-1.53-3.87-3.16-5.12-1.6-1.2-3.47-1.8-5.6-1.8-3.55,0-6.28,1.31-8.2,3.92-1.71,2.32-2.56,5.2-2.56,8.64s.85,6.31,2.56,8.6c1.92,2.64,4.65,3.96,8.2,3.96,2.56,0,4.68-.89,6.36-2.68,1.6-1.68,2.53-3.84,2.8-6.48h2.72c-.37,3.55-1.61,6.33-3.72,8.36-2.11,2.08-4.83,3.12-8.16,3.12-4.29,0-7.67-1.51-10.12-4.52-2.24-2.72-3.36-6.17-3.36-10.36s1.12-7.65,3.36-10.4c2.45-2.99,5.83-4.48,10.12-4.48,2.88,0,5.37.8,7.48,2.4,2.29,1.71,3.63,3.99,4,6.84h-2.72Z"/>
      <path d="m229.82,366.4h2.52v11.48h.08c1.07-2.77,3.27-4.16,6.6-4.16,2.77,0,4.76.71,5.96,2.12,1.07,1.28,1.6,3.23,1.6,5.84v13.28h-2.52v-12.88c0-1.95-.36-3.43-1.08-4.44-.85-1.2-2.24-1.8-4.16-1.8s-3.55.68-4.72,2.04c-1.12,1.28-1.71,2.96-1.76,5.04v12.04h-2.52v-28.56Z"/>
      <path d="m251.06,380.64c.13-2.35.96-4.11,2.48-5.28,1.44-1.09,3.4-1.64,5.88-1.64,1.01,0,1.92.09,2.72.28.96.19,1.77.51,2.44.96,1.63,1.09,2.44,2.89,2.44,5.4v10.96c0,1.01.49,1.52,1.48,1.52.29,0,.56-.05.8-.16v2.12c-.53.11-1.08.16-1.64.16-1.17,0-1.99-.33-2.44-1-.35-.53-.52-1.4-.52-2.6h-.08c-.99,1.47-1.96,2.51-2.92,3.12-1.2.72-2.73,1.08-4.6,1.08-2.03,0-3.67-.48-4.92-1.44-1.33-1.09-2-2.63-2-4.6,0-2.53,1.16-4.28,3.48-5.24.93-.37,2.12-.68,3.56-.92.53-.05,1.2-.13,2-.24l2.04-.24c1.17-.11,1.97-.32,2.4-.64.56-.4.84-1.12.84-2.16,0-1.57-.52-2.71-1.56-3.4-.88-.56-2.16-.84-3.84-.84-3.57,0-5.41,1.6-5.52,4.8h-2.52Zm13.44,3.04h-.08c-.13.27-.44.48-.92.64l-1.2.28-3.32.48c-1.31.21-2.33.44-3.08.68-2.13.67-3.2,1.87-3.2,3.6,0,1.23.47,2.23,1.4,3,.88.72,1.95,1.08,3.2,1.08,2,0,3.68-.57,5.04-1.72,1.44-1.2,2.16-2.79,2.16-4.76v-3.28Zm.44-12.16h-2.6l-3.4-4.08-3.52,4.08h-2.28l4.52-5.6h2.72l4.56,5.6Z"/>
      <path d="m288.78,394.96h-2.32v-3.72h-.08c-1.39,2.88-3.76,4.32-7.12,4.32-2.53,0-4.4-.71-5.6-2.12-1.09-1.28-1.64-3.19-1.64-5.72v-13.4h2.52v13.44c.13,3.79,1.97,5.68,5.52,5.68,2.03,0,3.6-.85,4.72-2.56.99-1.52,1.48-3.43,1.48-5.72v-10.84h2.52v20.64Z"/>
      <path d="m313.54,366.4h3.04l11.2,28.56h-2.92l-3.48-8.88h-13l-3.44,8.88h-2.92l11.52-28.56Zm7.28-2.8h-2.6l-3.4-4.04-3.52,4.04h-2.28l4.52-5.6h2.72l4.56,5.6Zm-11.6,20.16h11.24l-5.52-14.64-5.72,14.64Z"/>
      <path d="m346.54,394.96h-2.32v-3.72h-.08c-1.39,2.88-3.76,4.32-7.12,4.32-2.53,0-4.4-.71-5.6-2.12-1.09-1.28-1.64-3.19-1.64-5.72v-13.4h2.52v13.44c.13,3.79,1.97,5.68,5.52,5.68,2.03,0,3.6-.85,4.72-2.56.99-1.52,1.48-3.43,1.48-5.72v-10.84h2.52v20.64Z"/>
    </g>
    <g>
      <g>
        <path class="cls-2" d="m294.35,127.74c-.63,9.73-8.52,17.35-17.97,17.35-5.52,0-10.84-2.69-14.24-7.21l-.48-.64-.72.38c-2.09,1.1-4.36,1.66-6.75,1.66-6.65,0-12.57-4.6-14.38-11.18l-.14-.51-.51-.15c-6.67-1.98-11.33-8.38-11.33-15.55"/>
        <path class="cls-2" d="m248.71,115.83c0-10.74,8.74-19.47,19.47-19.47,9.04,0,16.83,6.14,18.93,14.93l.3,1.24,1.1-.64c2.33-1.35,4.99-2.06,7.7-2.06,3.87,0,7.56,1.44,10.4,4.05,3.02,2.78,4.78,6.57,4.95,10.67v20.36"/>
      </g>
      <rect class="cls-2" x="279.07" y="151.93" width="43.34" height="18.36" rx="2.67" ry="2.67"/>
      <path class="cls-2" d="m335.78,251.3h-18.52v-73.42c0-1.47-1.19-2.67-2.67-2.67h-27.71c-1.47,0-2.67,1.19-2.67,2.67v70.84c0,1.42-1.15,2.57-2.57,2.57h0c-1.42,0-2.57-1.15-2.57-2.57v-45.55l-41.49-39.52c-1.7-1.62-4.51-.41-4.51,1.93v40.91l-46.56-43c-1.71-1.58-4.48-.37-4.48,1.96v85.84h-17.83c-1.4,0-2.53,1.13-2.53,2.53s1.13,2.53,2.53,2.53h171.57c1.4,0,2.53-1.13,2.53-2.53s-1.13-2.53-2.53-2.53Z"/>
      <path class="cls-2" d="m242.49,245.92v-50.18c0-2.61,1.78-5.04,4.36-5.47,3.28-.54,6.13,1.99,6.13,5.17v50.47c0,1.47-1.19,2.67-2.67,2.67h-5.15c-1.47,0-2.67-1.19-2.67-2.67Z"/>
      <path class="cls-2" d="m191.56,245.92v-50.18c0-2.61,1.78-5.04,4.36-5.46,3.28-.54,6.13,1.99,6.13,5.17v50.47c0,1.47-1.19,2.67-2.67,2.67h-5.15c-1.47,0-2.67-1.19-2.67-2.67Z"/>
    </g>
  </g>
</svg>