<?xml version="1.0" encoding="UTF-8"?>
<svg xmlns="http://www.w3.org/2000/svg" viewBox="0 0 500 500">
  <defs>
    <style>
      .cls-1 {
        fill: #f9f9f9;
      }

      .cls-2 {
        fill: none;
        stroke: #000;
        stroke-linecap: round;
        stroke-linejoin: round;
        stroke-width: 2px;
      }
    </style>
  </defs>
  <g id="Layer_1" data-name="Layer 1">
    <rect class="cls-1" width="500" height="500"/>
  </g>
  <g id="Layer_2" data-name="Layer 2">
    <g>
      <path d="m119.36,320.04v-1.52h21.88v1.52h-10.08v27.04h-1.76v-27.04h-10.04Z"/>
      <path d="m144.44,318.52v12.4h.08c1.15-3.25,3.6-4.88,7.36-4.88,1.68,0,3.08.32,4.2.96.93.53,1.65,1.28,2.16,2.24.43.77.71,1.69.84,2.76.05.4.09.83.12,1.28v13.8h-1.52v-13.4c0-.19-.01-.35-.04-.48,0-.37-.03-.72-.08-1.04-.13-.85-.36-1.6-.68-2.24-.43-.77-1.01-1.37-1.76-1.8-.88-.51-1.97-.76-3.28-.76-2.29,0-4.11.81-5.44,2.44-1.31,1.55-1.96,3.6-1.96,6.16v11.12h-1.52v-28.56h1.52Z"/>
      <path d="m178.84,344.16c.03.32.08.59.16.8.19.53.59.8,1.2.8.27,0,.64-.04,1.12-.12v1.28c-.4.11-.81.16-1.24.16-1.09,0-1.85-.29-2.28-.88-.32-.43-.48-1.13-.48-2.12v-1.08h-.08c-.51,1.31-1.4,2.37-2.68,3.2-1.41.91-3.07,1.36-4.96,1.36-2.11,0-3.73-.43-4.88-1.28-1.33-.99-2-2.49-2-4.52,0-2.16.84-3.73,2.52-4.72.67-.4,1.48-.72,2.44-.96.72-.16,1.59-.29,2.6-.4,3.31-.21,5.33-.57,6.08-1.08.67-.43,1-1.49,1-3.2,0-.29-.08-.63-.24-1-.19-.51-.48-.96-.88-1.36-.45-.51-1.03-.89-1.72-1.16-.83-.35-1.79-.52-2.88-.52-4,0-6.11,1.83-6.32,5.48h-1.52c.21-4.53,2.83-6.8,7.84-6.8,2.11,0,3.76.36,4.96,1.08,1.49.88,2.24,2.31,2.24,4.28v12.76Zm-1.52-8.76c-.48.59-1.49.97-3.04,1.16l-2.16.2c-.96.08-1.71.16-2.24.24-3.76.45-5.64,2.04-5.64,4.76,0,2.99,1.8,4.48,5.4,4.48,1.6,0,2.97-.32,4.12-.96.93-.51,1.71-1.21,2.32-2.12.45-.72.79-1.51,1-2.36.08-.32.15-.64.2-.96l.04-.6v-3.84Z"/>
      <path d="m185.16,329.24c1.73-2.13,4.07-3.2,7-3.2s5.27,1.07,7,3.2c1.63,1.97,2.44,4.49,2.44,7.56s-.81,5.6-2.44,7.6c-1.73,2.11-4.07,3.16-7,3.16s-5.27-1.05-7-3.16c-1.63-2-2.44-4.53-2.44-7.6s.81-5.59,2.44-7.56Zm1.12,14.12c1.47,1.92,3.43,2.88,5.88,2.88s4.41-.96,5.88-2.88c1.36-1.76,2.04-3.95,2.04-6.56s-.68-4.8-2.04-6.56c-1.47-1.92-3.43-2.88-5.88-2.88s-4.41.96-5.88,2.88c-1.36,1.76-2.04,3.95-2.04,6.56s.68,4.8,2.04,6.56Z"/>
      <path d="m223.84,327.84h-4.48v14.36c0,1.55.39,2.56,1.16,3.04.59.4,1.68.57,3.28.52v1.32c-.88.05-1.63.04-2.24-.04-.77-.08-1.43-.28-1.96-.6-1.25-.72-1.84-2.13-1.76-4.24v-14.36h-3.8v-1.32h3.8v-6.4h1.52v6.4h4.48v1.32Z"/>
      <path d="m241.76,343.76v.4c.03.32.08.59.16.8.21.53.61.8,1.2.8.27,0,.64-.04,1.12-.12v1.28c-.59.11-1,.16-1.24.16-1.09,0-1.85-.29-2.28-.88-.32-.45-.48-1.16-.48-2.12v-1.08h-.08c-.51,1.31-1.41,2.37-2.72,3.2-1.41.91-3.05,1.36-4.92,1.36-2.11,0-3.73-.43-4.88-1.28-1.33-.99-2-2.49-2-4.52,0-2.13.84-3.71,2.52-4.72.67-.43,1.48-.75,2.44-.96.75-.19,1.61-.32,2.6-.4,3.31-.24,5.33-.6,6.08-1.08.67-.4,1-1.47,1-3.2,0-.29-.08-.63-.24-1-.19-.51-.48-.96-.88-1.36-.45-.51-1.03-.89-1.72-1.16-.83-.35-1.79-.52-2.88-.52-4,0-6.11,1.83-6.32,5.48h-1.52c.21-4.53,2.83-6.8,7.84-6.8,2.08,0,3.73.36,4.96,1.08,1.49.91,2.24,2.33,2.24,4.28v12.36Zm-1.52-8.36c-.51.56-1.52.95-3.04,1.16-.45.05-1.17.12-2.16.2-.99.11-1.73.19-2.24.24-3.76.43-5.64,2.01-5.64,4.76,0,2.99,1.8,4.48,5.4,4.48,1.6,0,2.97-.31,4.12-.92.96-.53,1.73-1.25,2.32-2.16.45-.72.79-1.51,1-2.36.08-.32.15-.64.2-.96l.04-.6v-3.84Zm-3.12-17.36h2.04l-5.36,5.6h-1.48l4.8-5.6Z"/>
      <path d="m262.12,332.88c-.16-1.76-.89-3.13-2.2-4.12-1.25-.93-2.84-1.4-4.76-1.4-2.43,0-4.39.96-5.88,2.88-1.36,1.73-2.04,3.85-2.04,6.36,0,2.91.65,5.21,1.96,6.92,1.41,1.81,3.4,2.72,5.96,2.72,1.89,0,3.51-.6,4.84-1.8,1.28-1.17,2.05-2.71,2.32-4.6h1.52c-.32,2.4-1.29,4.31-2.92,5.72-1.57,1.33-3.49,2-5.76,2-3.15,0-5.56-1.11-7.24-3.32-1.47-1.95-2.2-4.49-2.2-7.64s.81-5.49,2.44-7.44c1.73-2.08,4.07-3.12,7-3.12,2.32,0,4.24.56,5.76,1.68,1.6,1.2,2.51,2.92,2.72,5.16h-1.52Z"/>
      <path d="m294.4,342.68h-.08c-1.73,3.25-4.36,4.88-7.88,4.88-2.93,0-5.19-1.08-6.76-3.24-1.41-1.92-2.12-4.41-2.12-7.48s.75-5.76,2.24-7.68c1.63-2.08,3.93-3.12,6.92-3.12,1.73,0,3.28.44,4.64,1.32,1.44.93,2.43,2.19,2.96,3.76h.08v-12.6h1.52v28.56h-1.52v-4.4Zm-1.88.64c1.23-1.73,1.84-3.89,1.84-6.48s-.61-4.8-1.84-6.56c-1.39-1.95-3.32-2.92-5.8-2.92s-4.51.96-5.84,2.88c-1.2,1.68-1.8,3.88-1.8,6.6s.63,4.79,1.88,6.52c1.39,1.92,3.32,2.88,5.8,2.88s4.37-.97,5.76-2.92Z"/>
      <path d="m301.4,337c-.05,2.59.56,4.73,1.84,6.44,1.39,1.87,3.29,2.8,5.72,2.8,4.13,0,6.59-2.04,7.36-6.12h1.52c-.85,4.96-3.81,7.44-8.88,7.44-2.91,0-5.19-1.03-6.84-3.08-1.55-1.92-2.31-4.36-2.28-7.32-.03-3.04.71-5.6,2.2-7.68,1.68-2.29,3.99-3.44,6.92-3.44s5.41,1.09,7.04,3.28c1.47,2,2.13,4.56,2,7.68h-16.6Zm15.08-1.32c-.05-2.29-.73-4.23-2.04-5.8-1.41-1.68-3.24-2.52-5.48-2.52s-3.96.88-5.4,2.64c-1.28,1.57-2,3.47-2.16,5.68h15.08Zm-6.76-17.64l4.6,5.6h-1.52l-3.88-4.6-3.88,4.6h-1.52l4.6-5.6h1.6Zm-5.56-.96c.08-.93.37-1.76.88-2.48.56-.75,1.29-1.12,2.2-1.12.4,0,.87.11,1.4.32l.68.36,2.12,1.2c.53.27.97.4,1.32.4,1.01,0,1.61-.76,1.8-2.28h1.16c-.13,1.07-.41,1.88-.84,2.44-.59.77-1.32,1.16-2.2,1.16-.43,0-.89-.13-1.4-.4-.21-.08-.44-.2-.68-.36l-1.36-.8c-.27-.16-.51-.28-.72-.36-.51-.24-.97-.36-1.4-.36-.96,0-1.56.76-1.8,2.28h-1.16Z"/>
      <path d="m348.48,342.68h-.08c-1.73,3.25-4.36,4.88-7.88,4.88-2.93,0-5.19-1.08-6.76-3.24-1.41-1.92-2.12-4.41-2.12-7.48s.75-5.76,2.24-7.68c1.63-2.08,3.93-3.12,6.92-3.12,1.73,0,3.28.44,4.64,1.32,1.44.93,2.43,2.19,2.96,3.76h.08v-12.6h1.52v28.56h-1.52v-4.4Zm-1.88.64c1.23-1.73,1.84-3.89,1.84-6.48s-.61-4.8-1.84-6.56c-1.39-1.95-3.32-2.92-5.8-2.92s-4.51.96-5.84,2.88c-1.2,1.68-1.8,3.88-1.8,6.6s.63,4.79,1.88,6.52c1.39,1.92,3.32,2.88,5.8,2.88s4.37-.97,5.76-2.92Z"/>
      <path d="m369.96,343.76v.4c.03.32.08.59.16.8.21.53.61.8,1.2.8.27,0,.64-.04,1.12-.12v1.28c-.59.11-1,.16-1.24.16-1.09,0-1.85-.29-2.28-.88-.32-.45-.48-1.16-.48-2.12v-1.08h-.08c-.51,1.31-1.41,2.37-2.72,3.2-1.41.91-3.05,1.36-4.92,1.36-2.11,0-3.73-.43-4.88-1.28-1.33-.99-2-2.49-2-4.52,0-2.13.84-3.71,2.52-4.72.67-.43,1.48-.75,2.44-.96.75-.19,1.61-.32,2.6-.4,3.31-.24,5.33-.6,6.08-1.08.67-.4,1-1.47,1-3.2,0-.29-.08-.63-.24-1-.19-.51-.48-.96-.88-1.36-.45-.51-1.03-.89-1.72-1.16-.83-.35-1.79-.52-2.88-.52-4,0-6.11,1.83-6.32,5.48h-1.52c.21-4.53,2.83-6.8,7.84-6.8,2.08,0,3.73.36,4.96,1.08,1.49.91,2.24,2.33,2.24,4.28v12.36Zm-1.52-8.36c-.51.56-1.52.95-3.04,1.16-.45.05-1.17.12-2.16.2-.99.11-1.73.19-2.24.24-3.76.43-5.64,2.01-5.64,4.76,0,2.99,1.8,4.48,5.4,4.48,1.6,0,2.97-.31,4.12-.92.96-.53,1.73-1.25,2.32-2.16.45-.72.79-1.51,1-2.36.08-.32.15-.64.2-.96l.04-.6v-3.84Zm-5.36-11.68l-5.28-5.56h2l4.76,5.56h-1.48Z"/>
      <path d="m374.84,326.52h1.52v4.4h.08c1.15-3.25,3.6-4.88,7.36-4.88,1.68,0,3.08.32,4.2.96.93.53,1.65,1.28,2.16,2.24.43.77.71,1.69.84,2.76.05.4.09.83.12,1.28v13.8h-1.52v-13.4c0-.19-.01-.35-.04-.48,0-.37-.03-.72-.08-1.04-.13-.85-.36-1.6-.68-2.24-.43-.77-1.01-1.37-1.76-1.8-.88-.51-1.97-.76-3.28-.76-2.29,0-4.11.81-5.44,2.44-1.31,1.55-1.96,3.6-1.96,6.16v11.12h-1.52v-20.56Z"/>
      <path d="m412.6,326.52v20.32c-.03.45-.07.88-.12,1.28-.19,1.15-.52,2.16-1,3.04-.61,1.2-1.49,2.11-2.64,2.72-1.36.77-3.07,1.12-5.12,1.04-2.37,0-4.23-.47-5.56-1.4-1.55-1.09-2.37-2.76-2.48-5h1.52c.16,1.73.88,3.04,2.16,3.92,1.12.77,2.59,1.16,4.4,1.16,1.68,0,3.08-.32,4.2-.96.91-.51,1.63-1.23,2.16-2.16.4-.69.68-1.49.84-2.4.05-.35.09-.68.12-1v-5.44h-.08c-1.47,3.12-3.95,4.68-7.44,4.68-2.91,0-5.15-.97-6.72-2.92-1.44-1.81-2.16-4.23-2.16-7.24,0-2.85.76-5.23,2.28-7.12,1.63-2,3.83-3,6.6-3,3.76,0,6.24,1.59,7.44,4.76h.08v-4.28h1.52Zm-14.56,3.6c-1.23,1.65-1.84,3.67-1.84,6.04,0,2.53.63,4.61,1.88,6.24,1.33,1.73,3.16,2.6,5.48,2.6s4.24-.89,5.6-2.68c1.25-1.63,1.88-3.68,1.88-6.16s-.63-4.53-1.88-6.16c-1.36-1.76-3.23-2.64-5.6-2.64s-4.19.92-5.52,2.76Z"/>
      <path d="m101.28,374.44h2.52v3.56h.08c1.07-2.77,3.27-4.16,6.6-4.16,2.77,0,4.76.71,5.96,2.12,1.07,1.28,1.6,3.23,1.6,5.84v13.28h-2.52v-12.88c0-1.95-.36-3.43-1.08-4.44-.85-1.2-2.24-1.8-4.16-1.8s-3.55.68-4.72,2.04c-1.12,1.28-1.71,2.96-1.76,5.04v12.04h-2.52v-20.64Z"/>
      <path d="m140.24,393.4c0,3.23-.69,5.65-2.08,7.28-1.49,1.76-3.85,2.64-7.08,2.64-2.27,0-4.17-.49-5.72-1.48-1.73-1.12-2.68-2.71-2.84-4.76h2.52c.24,1.41.97,2.48,2.2,3.2,1.01.61,2.29.92,3.84.92,4.43,0,6.64-2.6,6.64-7.8v-2.8h-.08c-1.28,2.83-3.47,4.24-6.56,4.24s-5.52-1.03-7.12-3.08c-1.47-1.84-2.2-4.35-2.2-7.52,0-2.96.81-5.4,2.44-7.32,1.71-2.05,4-3.08,6.88-3.08,3.15,0,5.33,1.39,6.56,4.16h.08v-3.56h2.52v18.96Zm-4.2-3.24c1.12-1.52,1.68-3.4,1.68-5.64s-.51-4.23-1.52-5.8c-1.2-1.84-2.91-2.76-5.12-2.76s-3.97.89-5.2,2.68c-1.07,1.55-1.6,3.51-1.6,5.88s.55,4.15,1.64,5.64c1.23,1.71,2.95,2.56,5.16,2.56,2.08,0,3.73-.85,4.96-2.56Z"/>
      <path d="m144.8,380.76c.13-2.35.97-4.11,2.52-5.28,1.41-1.09,3.36-1.64,5.84-1.64,1.01,0,1.92.08,2.72.24.96.21,1.77.55,2.44,1,1.63,1.09,2.44,2.89,2.44,5.4v10.96c0,1.01.49,1.52,1.48,1.52.29,0,.56-.05.8-.16v2.12c-.53.11-1.08.16-1.64.16-1.17,0-1.99-.33-2.44-1-.35-.53-.52-1.4-.52-2.6h-.08c-.99,1.47-1.96,2.51-2.92,3.12-1.2.72-2.73,1.08-4.6,1.08-2.03,0-3.65-.49-4.88-1.48-1.36-1.04-2.04-2.56-2.04-4.56,0-2.53,1.17-4.28,3.52-5.24.88-.37,2.05-.68,3.52-.92.56-.08,1.23-.16,2-.24l2.04-.24c1.17-.11,1.97-.32,2.4-.64.56-.4.84-1.12.84-2.16,0-1.57-.52-2.71-1.56-3.4-.88-.56-2.16-.84-3.84-.84-3.57,0-5.41,1.6-5.52,4.8h-2.52Zm13.44,3.04h-.08c-.13.27-.44.48-.92.64l-1.2.28-3.32.52c-1.31.19-2.33.4-3.08.64-2.13.69-3.2,1.89-3.2,3.6,0,1.23.47,2.23,1.4,3,.88.72,1.95,1.08,3.2,1.08,2.03,0,3.71-.57,5.04-1.72,1.44-1.23,2.16-2.81,2.16-4.76v-3.28Z"/>
      <path d="m163.48,374.44h2.68l6.8,17.6,6.36-17.6h2.52l-8.96,23.8c-.77,1.81-1.47,3-2.08,3.56-.72.61-1.84.92-3.36.92-1.01-.05-1.65-.12-1.92-.2v-2.12c.67.13,1.24.2,1.72.2,1.01,0,1.79-.31,2.32-.92.24-.24.47-.57.68-1l.6-1.32.88-2.36-8.24-20.56Z"/>
      <path d="m199.44,374.44h4.2v2.12h-4.2v13.92c0,1.73.68,2.64,2.04,2.72.72,0,1.44-.04,2.16-.12v2.16l-2.24.08c-1.68,0-2.85-.33-3.52-1-.67-.67-.99-1.88-.96-3.64v-14.12h-3.6v-2.12h3.6v-6.2h2.52v6.2Z"/>
      <path d="m223.96,379.68v15.4h-2.32v-3.72h-.08c-1.39,2.88-3.76,4.32-7.12,4.32-2.53,0-4.39-.71-5.56-2.12-1.12-1.28-1.68-3.19-1.68-5.72v-13.4h2.52v13.44c.11,3.79,1.95,5.68,5.52,5.68,2.03,0,3.6-.85,4.72-2.56.99-1.52,1.48-3.43,1.48-5.72v-10.84h2.52v4.64c.35-.13.63-.28.84-.44.43-.29.73-.59.92-.88.19-.29.29-.55.32-.76l.04-.28v-.28h-.76v-2h2.12v1.84c0,.77-.23,1.39-.7,1.86-.47.47-.97.83-1.5,1.1-.45.19-.88.33-1.28.44Zm-13.56-13.76h3.12l4.16,5.64h-2.04l-5.24-5.64Z"/>
      <path d="m239.88,366.52h2.52v28.56h-2.52v-28.56Z"/>
      <path d="m246.96,380.76c.13-2.35.96-4.11,2.48-5.28,1.44-1.09,3.4-1.64,5.88-1.64,1.01,0,1.92.09,2.72.28.96.19,1.77.51,2.44.96,1.63,1.09,2.44,2.89,2.44,5.4v10.96c0,1.01.49,1.52,1.48,1.52.29,0,.56-.05.8-.16v2.12c-.53.11-1.08.16-1.64.16-1.17,0-1.99-.33-2.44-1-.35-.53-.52-1.4-.52-2.6h-.08c-.99,1.47-1.96,2.51-2.92,3.12-1.2.72-2.73,1.08-4.6,1.08-2.03,0-3.67-.48-4.92-1.44-1.33-1.09-2-2.63-2-4.6,0-2.53,1.16-4.28,3.48-5.24.93-.37,2.12-.68,3.56-.92.53-.05,1.2-.13,2-.24l2.04-.24c1.17-.11,1.97-.32,2.4-.64.56-.4.84-1.12.84-2.16,0-1.57-.52-2.71-1.56-3.4-.88-.56-2.16-.84-3.84-.84-3.57,0-5.41,1.6-5.52,4.8h-2.52Zm13.44,3.04h-.08c-.13.27-.44.48-.92.64l-1.2.28-3.32.48c-1.31.21-2.33.44-3.08.68-2.13.67-3.2,1.87-3.2,3.6,0,1.23.47,2.23,1.4,3,.88.72,1.95,1.08,3.2,1.08,2,0,3.68-.57,5.04-1.72,1.44-1.2,2.16-2.79,2.16-4.76v-3.28Zm.44-12.16h-2.6l-3.4-4.08-3.52,4.08h-2.28l4.52-5.6h2.72l4.56,5.6Zm-6.4-9.84h3.12l4.16,5.6h-2.04l-5.24-5.6Z"/>
      <path d="m267.92,374.44h2.52v3.56h.08c1.07-2.77,3.27-4.16,6.6-4.16,2.77,0,4.76.71,5.96,2.12,1.07,1.28,1.6,3.23,1.6,5.84v13.28h-2.52v-12.88c0-1.95-.36-3.43-1.08-4.44-.85-1.2-2.24-1.8-4.16-1.8s-3.55.68-4.72,2.04c-1.12,1.28-1.71,2.96-1.76,5.04v12.04h-2.52v-20.64Z"/>
      <path d="m318.68,371.36v23.72h-2.32v-3.92h-.08c-.53,1.33-1.52,2.43-2.96,3.28-1.39.83-2.85,1.24-4.4,1.24-2.99,0-5.32-1.08-7-3.24-1.52-2-2.28-4.56-2.28-7.68s.76-5.68,2.28-7.68c1.68-2.16,4.01-3.24,7-3.24,1.6,0,3.04.39,4.32,1.16,1.39.83,2.33,1.95,2.84,3.36h.08v-7h-7v-1.52h7v-3.32h2.52v3.32h2.56v1.52h-2.56Zm-14.92,19.4c1.2,1.87,2.92,2.8,5.16,2.8,2.45,0,4.33-.93,5.64-2.8,1.07-1.57,1.6-3.57,1.6-6s-.53-4.43-1.6-6c-1.31-1.87-3.19-2.8-5.64-2.8-2.24,0-3.96.93-5.16,2.8-1.07,1.6-1.6,3.6-1.6,6s.53,4.4,1.6,6Z"/>
      <path d="m323.2,380.76c.13-2.35.96-4.11,2.48-5.28,1.44-1.09,3.4-1.64,5.88-1.64,1.01,0,1.92.09,2.72.28.96.19,1.77.51,2.44.96,1.63,1.09,2.44,2.89,2.44,5.4v10.96c0,1.01.49,1.52,1.48,1.52.29,0,.56-.05.8-.16v2.12c-.53.11-1.08.16-1.64.16-1.17,0-1.99-.33-2.44-1-.35-.53-.52-1.4-.52-2.6h-.08c-.99,1.47-1.96,2.51-2.92,3.12-1.2.72-2.73,1.08-4.6,1.08-2.03,0-3.67-.48-4.92-1.44-1.33-1.09-2-2.63-2-4.6,0-2.53,1.16-4.28,3.48-5.24.93-.37,2.12-.68,3.56-.92.53-.05,1.2-.13,2-.24l2.04-.24c1.17-.11,1.97-.32,2.4-.64.56-.4.84-1.12.84-2.16,0-1.57-.52-2.71-1.56-3.4-.88-.56-2.16-.84-3.84-.84-3.57,0-5.41,1.6-5.52,4.8h-2.52Zm13.44,3.04h-.08c-.13.27-.44.48-.92.64l-1.2.28-3.32.48c-1.31.21-2.33.44-3.08.68-2.13.67-3.2,1.87-3.2,3.6,0,1.23.47,2.23,1.4,3,.88.72,1.95,1.08,3.2,1.08,2,0,3.68-.57,5.04-1.72,1.44-1.2,2.16-2.79,2.16-4.76v-3.28Zm.44-12.16h-2.6l-3.4-4.08-3.52,4.08h-2.28l4.52-5.6h2.72l4.56,5.6Zm-6.4-9.84h3.12l4.16,5.6h-2.04l-5.24-5.6Z"/>
      <path d="m360.92,395.08h-2.32v-3.72h-.08c-1.39,2.88-3.76,4.32-7.12,4.32-2.53,0-4.4-.71-5.6-2.12-1.09-1.28-1.64-3.19-1.64-5.72v-13.4h2.52v13.44c.13,3.79,1.97,5.68,5.52,5.68,2.03,0,3.6-.85,4.72-2.56.99-1.52,1.48-3.43,1.48-5.72v-10.84h2.52v20.64Z"/>
      <path d="m380.8,374.44h4.2v2.12h-4.2v13.92c0,1.73.68,2.64,2.04,2.72.72,0,1.44-.04,2.16-.12v2.16l-2.24.08c-1.68,0-2.85-.33-3.52-1-.67-.67-.99-1.88-.96-3.64v-14.12h-3.6v-2.12h3.6v-6.2h2.52v6.2Z"/>
      <path d="m388.68,366.52h2.52v4.04h-2.52v-4.04Zm0,7.92h2.52v20.64h-2.52v-20.64Z"/>
      <path d="m397.48,385.44c0,2.11.53,3.92,1.6,5.44,1.25,1.79,2.99,2.68,5.2,2.68,3.44,0,5.6-1.76,6.48-5.28h2.52c-1.12,4.93-4.12,7.4-9,7.4-3.09,0-5.47-1.08-7.12-3.24-1.47-1.95-2.2-4.51-2.2-7.68s.73-5.51,2.2-7.48c1.68-2.29,4.05-3.44,7.12-3.44s5.45,1.21,7.08,3.64c1.44,2.11,2.11,4.76,2,7.96h-15.88Zm13.36-2.12c-.05-2-.65-3.69-1.8-5.08-1.23-1.52-2.81-2.28-4.76-2.28s-3.55.76-4.8,2.28c-1.09,1.33-1.76,3.03-2,5.08h13.36Zm-.8-11.68h-2.56l-3.4-4.08-3.52,4.08h-2.28l4.52-5.6h2.72l4.52,5.6Z"/>
      <path d="m416.72,374.44h2.52v3.56h.08c1.07-2.77,3.27-4.16,6.6-4.16,2.77,0,4.76.71,5.96,2.12,1.07,1.28,1.6,3.23,1.6,5.84v13.28h-2.52v-12.88c0-1.95-.36-3.43-1.08-4.44-.85-1.2-2.24-1.8-4.16-1.8s-3.55.68-4.72,2.04c-1.12,1.28-1.71,2.96-1.76,5.04v12.04h-2.52v-20.64Z"/>
    </g>
    <g>
      <circle class="cls-2" cx="267.38" cy="176.36" r="80"/>
      <path class="cls-2" d="m267.41,243.4c-36.97,0-67.05-30.08-67.05-67.05s30.08-67.05,67.05-67.05c22.77,0,43.8,11.45,56.27,30.63l1.9,2.92-1.9,2.91c-5.95,9.1-9.1,19.67-9.1,30.59s3.15,21.49,9.1,30.59l1.9,2.91-1.9,2.92c-12.46,19.18-33.49,30.64-56.27,30.64Z"/>
      <g>
        <path class="cls-2" d="m244.81,151.22c1.61,5.64,6.84,9.58,12.71,9.58s11.09-3.94,12.71-9.58"/>
        <path class="cls-2" d="m277.93,164.95l-1.5,5c-.04.14-.06.28-.06.42v37.19l-37.76-.09v-37.2c0-.15-.02-.29-.06-.42l-1.49-5"/>
        <g>
          <path class="cls-2" d="m280.76,177.49l4.47,4.47c.28.28.65.43,1.04.43s.77-.15,1.04-.43l12.45-12.45c.58-.57.58-1.51,0-2.09l-16.9-16.9c-3.61-3.43-8.43-5.34-13.57-5.39h-1.23"/>
          <path class="cls-2" d="m234.27,177.49l-4.47,4.47c-.28.28-.65.43-1.04.43s-.77-.15-1.04-.43l-12.45-12.45c-.58-.57-.58-1.51,0-2.09l16.9-16.9c3.61-3.43,8.43-5.34,13.57-5.39h1.23"/>
        </g>
      </g>
    </g>
  </g>
</svg>