<?xml version="1.0" encoding="UTF-8"?>
<svg xmlns="http://www.w3.org/2000/svg" viewBox="0 0 500 500">
  <defs>
    <style>
      .cls-1 {
        fill: #f9f9f9;
      }

      .cls-2 {
        fill-rule: evenodd;
      }

      .cls-2, .cls-3 {
        fill: none;
        stroke: #000;
        stroke-linecap: round;
        stroke-linejoin: round;
        stroke-width: 2px;
      }
    </style>
  </defs>
  <g id="Layer_1" data-name="Layer 1">
    <rect class="cls-1" width="500" height="500"/>
  </g>
  <g id="Layer_2" data-name="Layer 2">
    <g>
      <path d="m103.53,318.52h9.36c2.45,0,4.57.4,6.36,1.2,1.63.75,2.99,1.81,4.08,3.2.96,1.25,1.67,2.77,2.12,4.56.43,1.6.64,3.36.64,5.28,0,4.27-1.07,7.67-3.2,10.2-2.35,2.75-5.71,4.12-10.08,4.12h-9.28v-14.52h-2.72v-1.32h2.72v-12.72Zm12.32,12.72v1.32h-10.56v13h7.68c1.41,0,2.75-.2,4-.6,1.41-.45,2.64-1.15,3.68-2.08,1.15-1.07,2.04-2.39,2.68-3.96.67-1.76,1-3.81,1-6.16,0-2.75-.41-5.05-1.24-6.92-.69-1.6-1.71-2.87-3.04-3.8-1.07-.77-2.33-1.32-3.8-1.64-1.07-.24-2.28-.36-3.64-.36h-7.32v11.2h10.56Z"/>
      <path d="m131.33,329.24c1.71-2.13,4.03-3.2,6.96-3.2s5.24,1.07,7,3.2c1.63,2,2.44,4.52,2.44,7.56s-.81,5.56-2.44,7.56c-1.76,2.13-4.09,3.2-7,3.2s-5.25-1.07-6.96-3.2c-1.65-2-2.48-4.52-2.48-7.56s.83-5.56,2.48-7.56Zm1.08,14.12c1.47,1.92,3.43,2.88,5.88,2.88s4.44-.96,5.88-2.88c1.36-1.76,2.04-3.95,2.04-6.56s-.68-4.8-2.04-6.56c-1.44-1.92-3.4-2.88-5.88-2.88s-4.41.96-5.88,2.88c-1.36,1.76-2.04,3.95-2.04,6.56s.68,4.8,2.04,6.56Zm6.64-25.32l4.64,5.6h-1.52l-3.92-4.6-3.84,4.6h-1.52l4.56-5.6h1.6Zm.2,33.76h-1.92v-1.92h1.92v1.92Z"/>
      <path d="m151.29,326.52h1.52v4.4h.08c1.15-3.25,3.6-4.88,7.36-4.88,1.68,0,3.08.32,4.2.96.93.53,1.65,1.28,2.16,2.24.43.77.71,1.69.84,2.76.05.4.09.83.12,1.28v13.8h-1.52v-13.4c0-.19-.01-.35-.04-.48,0-.37-.03-.72-.08-1.04-.13-.85-.36-1.6-.68-2.24-.43-.77-1.01-1.37-1.76-1.8-.88-.51-1.97-.76-3.28-.76-2.29,0-4.11.81-5.44,2.44-1.31,1.55-1.96,3.6-1.96,6.16v11.12h-1.52v-20.56Z"/>
      <path d="m189.04,326.52v20.32c-.03.45-.07.88-.12,1.28-.19,1.15-.52,2.16-1,3.04-.61,1.2-1.49,2.11-2.64,2.72-1.36.77-3.07,1.12-5.12,1.04-2.37,0-4.23-.47-5.56-1.4-1.55-1.09-2.37-2.76-2.48-5h1.52c.16,1.73.88,3.04,2.16,3.92,1.12.77,2.59,1.16,4.4,1.16,1.68,0,3.08-.32,4.2-.96.91-.51,1.63-1.23,2.16-2.16.4-.69.68-1.49.84-2.4.05-.35.09-.68.12-1v-5.44h-.08c-1.47,3.12-3.95,4.68-7.44,4.68-2.91,0-5.15-.97-6.72-2.92-1.44-1.81-2.16-4.23-2.16-7.24,0-2.85.76-5.23,2.28-7.12,1.63-2,3.83-3,6.6-3,3.76,0,6.24,1.59,7.44,4.76h.08v-4.28h1.52Zm-14.56,3.6c-1.23,1.65-1.84,3.67-1.84,6.04,0,2.53.63,4.61,1.88,6.24,1.33,1.73,3.16,2.6,5.48,2.6s4.24-.89,5.6-2.68c1.25-1.63,1.88-3.68,1.88-6.16s-.63-4.53-1.88-6.16c-1.36-1.76-3.23-2.64-5.6-2.64s-4.19.92-5.52,2.76Z"/>
      <path d="m220.12,332.88c-.16-1.76-.89-3.13-2.2-4.12-1.25-.93-2.84-1.4-4.76-1.4-2.43,0-4.39.96-5.88,2.88-1.36,1.73-2.04,3.85-2.04,6.36,0,2.91.65,5.21,1.96,6.92,1.41,1.81,3.4,2.72,5.96,2.72,1.89,0,3.51-.6,4.84-1.8,1.28-1.17,2.05-2.71,2.32-4.6h1.52c-.32,2.4-1.29,4.31-2.92,5.72-1.57,1.33-3.49,2-5.76,2-3.15,0-5.56-1.11-7.24-3.32-1.47-1.95-2.2-4.49-2.2-7.64s.81-5.49,2.44-7.44c1.73-2.08,4.07-3.12,7-3.12,2.32,0,4.24.56,5.76,1.68,1.6,1.2,2.51,2.92,2.72,5.16h-1.52Z"/>
      <path d="m241.52,330.2c1.17,1.84,1.76,4.04,1.76,6.6,0,3.04-.81,5.56-2.44,7.56-1.76,2.13-4.09,3.2-7,3.2s-5.25-1.07-6.96-3.2c-1.65-2-2.48-4.52-2.48-7.56s.83-5.56,2.48-7.56c1.71-2.13,4.03-3.2,6.96-3.2s5.24,1.07,7,3.2c.16.19.29.37.4.56.61-.24,1-.48,1.16-.72.21-.29.32-.6.32-.92v-.2h-.56v-1.44h1.56v1.32c0,.56-.17,1.01-.5,1.34-.33.33-.71.59-1.14.78-.19.11-.37.19-.56.24Zm-13.56,13.16c1.47,1.92,3.43,2.88,5.88,2.88s4.44-.96,5.88-2.88c1.36-1.76,2.04-3.95,2.04-6.56s-.68-4.8-2.04-6.56c-1.44-1.92-3.4-2.88-5.88-2.88s-4.41.96-5.88,2.88c-1.36,1.76-2.04,3.95-2.04,6.56s.68,4.8,2.04,6.56Z"/>
      <path d="m258.32,318.52h1.52v12.36h.08c.56-1.55,1.59-2.76,3.08-3.64,1.39-.8,2.96-1.2,4.72-1.2,2.91,0,5.15,1,6.72,3,1.47,1.84,2.2,4.27,2.2,7.28,0,2.29-.33,4.25-1,5.88-.56,1.41-1.36,2.55-2.4,3.4-.85.72-1.83,1.25-2.92,1.6-.85.24-1.72.36-2.6.36-1.25,0-2.4-.21-3.44-.64-.88-.35-1.67-.84-2.36-1.48-.56-.51-1.03-1.08-1.4-1.72-.16-.24-.29-.48-.4-.72l-.2-.52h-.08v4.6h-1.52v-28.56Zm15.12,24.52c1.12-1.79,1.68-4.03,1.68-6.72,0-2.45-.61-4.52-1.84-6.2-1.39-1.84-3.24-2.76-5.56-2.76-2.56,0-4.53.85-5.92,2.56-1.28,1.57-1.92,3.71-1.92,6.4s.61,5.05,1.84,6.84c1.39,2.05,3.39,3.08,6,3.08s4.41-1.07,5.72-3.2Z"/>
      <path d="m280.84,337c-.05,2.59.56,4.73,1.84,6.44,1.39,1.87,3.29,2.8,5.72,2.8,4.13,0,6.59-2.04,7.36-6.12h1.52c-.85,4.96-3.81,7.44-8.88,7.44-2.91,0-5.19-1.03-6.84-3.08-1.55-1.92-2.31-4.36-2.28-7.32-.03-3.04.71-5.6,2.2-7.68,1.68-2.29,3.99-3.44,6.92-3.44s5.41,1.09,7.04,3.28c1.47,2,2.13,4.56,2,7.68h-16.6Zm15.08-1.32c-.05-2.29-.73-4.23-2.04-5.8-1.41-1.68-3.24-2.52-5.48-2.52s-3.96.88-5.4,2.64c-1.28,1.57-2,3.47-2.16,5.68h15.08Zm-6.76-17.64l4.6,5.6h-1.52l-3.88-4.6-3.88,4.6h-1.52l4.6-5.6h1.6Zm2.44.56l-5.32-5.56h2.04l4.76,5.56h-1.48Z"/>
      <path d="m300.92,326.52h1.52v4.4h.08c1.15-3.25,3.6-4.88,7.36-4.88,1.68,0,3.08.32,4.2.96.93.53,1.65,1.28,2.16,2.24.43.77.71,1.69.84,2.76.05.4.09.83.12,1.28v13.8h-1.52v-13.4c0-.19-.01-.35-.04-.48,0-.37-.03-.72-.08-1.04-.13-.85-.36-1.6-.68-2.24-.43-.77-1.01-1.37-1.76-1.8-.88-.51-1.97-.76-3.28-.76-2.29,0-4.11.81-5.44,2.44-1.31,1.55-1.96,3.6-1.96,6.16v11.12h-1.52v-20.56Z"/>
      <path d="m333.16,318.52h1.52v12.36h.08c.56-1.55,1.59-2.76,3.08-3.64,1.39-.8,2.96-1.2,4.72-1.2,2.91,0,5.15,1,6.72,3,1.47,1.84,2.2,4.27,2.2,7.28,0,2.29-.33,4.25-1,5.88-.56,1.41-1.36,2.55-2.4,3.4-.85.72-1.83,1.25-2.92,1.6-.85.24-1.72.36-2.6.36-1.25,0-2.4-.21-3.44-.64-.88-.35-1.67-.84-2.36-1.48-.56-.51-1.03-1.08-1.4-1.72-.16-.24-.29-.48-.4-.72l-.2-.52h-.08v4.6h-1.52v-28.56Zm15.12,24.52c1.12-1.79,1.68-4.03,1.68-6.72,0-2.45-.61-4.52-1.84-6.2-1.39-1.84-3.24-2.76-5.56-2.76-2.56,0-4.53.85-5.92,2.56-1.28,1.57-1.92,3.71-1.92,6.4s.61,5.05,1.84,6.84c1.39,2.05,3.39,3.08,6,3.08s4.41-1.07,5.72-3.2Z"/>
      <path d="m357.04,316.96c.67,0,1.23.19,1.7.56.47.37.7.92.7,1.64s-.19,1.23-.58,1.62-.81.73-1.26,1.02c-.43.27-.77.51-1.02.74-.25.23-.42.63-.5,1.22h-.84c.03-.4.12-.79.28-1.18s.48-.75.96-1.1c.67-.4,1.17-.75,1.5-1.06.33-.31.5-.73.5-1.26,0-.4-.15-.73-.44-1-.29-.27-.64-.4-1.04-.4-.56,0-.96.21-1.2.62-.24.41-.35.85-.32,1.3h-.92c-.05-.77.14-1.42.58-1.94.44-.52,1.07-.78,1.9-.78Zm-1.68,30.12v-20.56h1.56v20.56h-1.56Z"/>
      <path d="m363.48,350.8c.51-.24.88-.79,1.12-1.64.08-.35.15-.72.2-1.12.03-.32.04-.64.04-.96h-.84v-4.12h2.04v4.12c0,1.2-.19,2.21-.56,3.04-.43.99-1.09,1.65-2,2v-1.32Z"/>
      <path d="m110.81,395.08h-2.32v-3.92h-.08c-.53,1.33-1.52,2.43-2.96,3.28-1.39.83-2.85,1.24-4.4,1.24-2.99,0-5.32-1.08-7-3.24-1.52-2-2.28-4.56-2.28-7.68s.76-5.68,2.28-7.68c1.68-2.16,4.01-3.24,7-3.24,1.6,0,3.04.39,4.32,1.16,1.39.83,2.33,1.95,2.84,3.36h.08v-11.84h2.52v28.56Zm-14.92-4.32c1.2,1.87,2.92,2.8,5.16,2.8,2.45,0,4.32-.93,5.6-2.8,1.09-1.57,1.64-3.57,1.64-6s-.55-4.43-1.64-6c-1.28-1.87-3.15-2.8-5.6-2.8-2.24,0-3.96.93-5.16,2.8-1.07,1.6-1.6,3.6-1.6,6s.53,4.4,1.6,6Z"/>
      <path d="m117.05,385.44c0,2.11.53,3.92,1.6,5.44,1.25,1.79,2.99,2.68,5.2,2.68,3.44,0,5.6-1.76,6.48-5.28h2.52c-1.12,4.93-4.12,7.4-9,7.4-3.09,0-5.47-1.08-7.12-3.24-1.47-1.95-2.2-4.51-2.2-7.68s.73-5.51,2.2-7.48c1.68-2.29,4.05-3.44,7.12-3.44s5.45,1.21,7.08,3.64c1.44,2.11,2.11,4.76,2,7.96h-15.88Zm13.36-2.12c-.05-2-.65-3.69-1.8-5.08-1.23-1.52-2.81-2.28-4.76-2.28s-3.55.76-4.8,2.28c-1.09,1.33-1.76,3.03-2,5.08h13.36Zm-.8-11.68h-2.56l-3.4-4.08-3.52,4.08h-2.28l4.52-5.6h2.72l4.52,5.6Zm1.52-10.28c-.19,1.04-.55,1.91-1.08,2.6-.64.8-1.44,1.2-2.4,1.2-.48,0-1-.09-1.56-.28-.4-.13-.88-.35-1.44-.64l-1.32-.64c-.45-.19-.85-.28-1.2-.28-1.01,0-1.68.68-2,2.04h-1.56c.11-1.01.47-1.89,1.08-2.64.67-.8,1.49-1.2,2.48-1.2.51,0,1.04.09,1.6.28.37.13.84.33,1.4.6l.16.08s.08.05.16.08c.13.08.24.13.32.16.24.13.44.23.6.28.45.19.84.28,1.16.28,1.01,0,1.71-.64,2.08-1.92h1.52Z"/>
      <path d="m165.61,395.08h-2.32v-3.92h-.08c-.53,1.33-1.52,2.43-2.96,3.28-1.39.83-2.85,1.24-4.4,1.24-2.99,0-5.32-1.08-7-3.24-1.52-2-2.28-4.56-2.28-7.68s.76-5.68,2.28-7.68c1.68-2.16,4.01-3.24,7-3.24,1.6,0,3.04.39,4.32,1.16,1.39.83,2.33,1.95,2.84,3.36h.08v-11.84h2.52v28.56Zm-14.92-4.32c1.2,1.87,2.92,2.8,5.16,2.8,2.45,0,4.32-.93,5.6-2.8,1.09-1.57,1.64-3.57,1.64-6s-.55-4.43-1.64-6c-1.28-1.87-3.15-2.8-5.6-2.8-2.24,0-3.96.93-5.16,2.8-1.07,1.6-1.6,3.6-1.6,6s.53,4.4,1.6,6Z"/>
      <path d="m170.13,380.76c.13-2.35.96-4.11,2.48-5.28,1.44-1.09,3.4-1.64,5.88-1.64,1.01,0,1.92.09,2.72.28.96.19,1.77.51,2.44.96,1.63,1.09,2.44,2.89,2.44,5.4v10.96c0,1.01.49,1.52,1.48,1.52.29,0,.56-.05.8-.16v2.12c-.53.11-1.08.16-1.64.16-1.17,0-1.99-.33-2.44-1-.35-.53-.52-1.4-.52-2.6h-.08c-.99,1.47-1.96,2.51-2.92,3.12-1.2.72-2.73,1.08-4.6,1.08-2.03,0-3.67-.48-4.92-1.44-1.33-1.09-2-2.63-2-4.6,0-2.53,1.16-4.28,3.48-5.24.93-.37,2.12-.68,3.56-.92.53-.05,1.2-.13,2-.24l2.04-.24c1.17-.11,1.97-.32,2.4-.64.56-.4.84-1.12.84-2.16,0-1.57-.52-2.71-1.56-3.4-.88-.56-2.16-.84-3.84-.84-3.57,0-5.41,1.6-5.52,4.8h-2.52Zm13.44,3.04h-.08c-.13.27-.44.48-.92.64l-1.2.28-3.32.48c-1.31.21-2.33.44-3.08.68-2.13.67-3.2,1.87-3.2,3.6,0,1.23.47,2.23,1.4,3,.88.72,1.95,1.08,3.2,1.08,2,0,3.68-.57,5.04-1.72,1.44-1.2,2.16-2.79,2.16-4.76v-3.28Zm-10.72-17.88h3.12l4.16,5.64h-2l-5.28-5.64Z"/>
      <path d="m191.09,374.44h2.52v3.56h.08c1.07-2.77,3.27-4.16,6.6-4.16,2.77,0,4.76.71,5.96,2.12,1.07,1.28,1.6,3.23,1.6,5.84v13.28h-2.52v-12.88c0-1.95-.36-3.43-1.08-4.44-.85-1.2-2.24-1.8-4.16-1.8s-3.55.68-4.72,2.04c-1.12,1.28-1.71,2.96-1.76,5.04v12.04h-2.52v-20.64Z"/>
      <path d="m230.04,393.4c0,3.23-.69,5.65-2.08,7.28-1.49,1.76-3.85,2.64-7.08,2.64-2.27,0-4.17-.49-5.72-1.48-1.73-1.12-2.68-2.71-2.84-4.76h2.52c.24,1.41.97,2.48,2.2,3.2,1.01.61,2.29.92,3.84.92,4.43,0,6.64-2.6,6.64-7.8v-2.8h-.08c-1.28,2.83-3.47,4.24-6.56,4.24s-5.52-1.03-7.12-3.08c-1.47-1.84-2.2-4.35-2.2-7.52,0-2.96.81-5.4,2.44-7.32,1.71-2.05,4-3.08,6.88-3.08,3.15,0,5.33,1.39,6.56,4.16h.08v-3.56h2.52v18.96Zm-4.2-3.24c1.12-1.52,1.68-3.4,1.68-5.64s-.51-4.23-1.52-5.8c-1.2-1.84-2.91-2.76-5.12-2.76s-3.97.89-5.2,2.68c-1.07,1.55-1.6,3.51-1.6,5.88s.55,4.15,1.64,5.64c1.23,1.71,2.95,2.56,5.16,2.56,2.08,0,3.73-.85,4.96-2.56Z"/>
      <path d="m249.97,374.44h4.2v2.12h-4.2v13.92c0,1.73.68,2.64,2.04,2.72.72,0,1.44-.04,2.16-.12v2.16l-2.24.08c-1.68,0-2.85-.33-3.52-1-.67-.67-.99-1.88-.96-3.64v-14.12h-3.6v-2.12h3.6v-6.2h2.52v6.2Z"/>
      <path d="m257.77,366.52h2.52v11.48h.08c1.07-2.77,3.27-4.16,6.6-4.16,2.77,0,4.76.71,5.96,2.12,1.07,1.28,1.6,3.23,1.6,5.84v13.28h-2.52v-12.88c0-1.95-.36-3.43-1.08-4.44-.85-1.2-2.24-1.8-4.16-1.8s-3.55.68-4.72,2.04c-1.12,1.28-1.71,2.96-1.76,5.04v12.04h-2.52v-28.56Z"/>
      <path d="m279.04,380.76c.13-2.35.97-4.11,2.52-5.28,1.41-1.09,3.36-1.64,5.84-1.64,1.01,0,1.92.08,2.72.24.96.21,1.77.55,2.44,1,1.63,1.09,2.44,2.89,2.44,5.4v10.96c0,1.01.49,1.52,1.48,1.52.29,0,.56-.05.8-.16v2.12c-.53.11-1.08.16-1.64.16-1.17,0-1.99-.33-2.44-1-.35-.53-.52-1.4-.52-2.6h-.08c-.99,1.47-1.96,2.51-2.92,3.12-1.2.72-2.73,1.08-4.6,1.08-2.03,0-3.65-.49-4.88-1.48-1.36-1.04-2.04-2.56-2.04-4.56,0-2.53,1.17-4.28,3.52-5.24.88-.37,2.05-.68,3.52-.92.56-.08,1.23-.16,2-.24l2.04-.24c1.17-.11,1.97-.32,2.4-.64.56-.4.84-1.12.84-2.16,0-1.57-.52-2.71-1.56-3.4-.88-.56-2.16-.84-3.84-.84-3.57,0-5.41,1.6-5.52,4.8h-2.52Zm13.44,3.04h-.08c-.13.27-.44.48-.92.64l-1.2.28-3.32.52c-1.31.19-2.33.4-3.08.64-2.13.69-3.2,1.89-3.2,3.6,0,1.23.47,2.23,1.4,3,.88.72,1.95,1.08,3.2,1.08,2.03,0,3.71-.57,5.04-1.72,1.44-1.23,2.16-2.81,2.16-4.76v-3.28Z"/>
      <path d="m297.72,374.44h2.68l6.8,17.6,6.36-17.6h2.52l-8.96,23.8c-.77,1.81-1.47,3-2.08,3.56-.72.61-1.84.92-3.36.92-1.01-.05-1.65-.12-1.92-.2v-2.12c.67.13,1.24.2,1.72.2,1.01,0,1.79-.31,2.32-.92.24-.24.47-.57.68-1l.6-1.32.88-2.36-8.24-20.56Z"/>
      <path d="m333.68,374.44h4.2v2.12h-4.2v13.92c0,1.73.68,2.64,2.04,2.72.72,0,1.44-.04,2.16-.12v2.16l-2.24.08c-1.68,0-2.85-.33-3.52-1-.67-.67-.99-1.88-.96-3.64v-14.12h-3.6v-2.12h3.6v-6.2h2.52v6.2Z"/>
      <path d="m341.48,366.52h2.52v11.48h.08c1.07-2.77,3.27-4.16,6.6-4.16,2.77,0,4.76.71,5.96,2.12,1.07,1.28,1.6,3.23,1.6,5.84v13.28h-2.52v-12.88c0-1.95-.36-3.43-1.08-4.44-.85-1.2-2.24-1.8-4.16-1.8s-3.55.68-4.72,2.04c-1.12,1.28-1.71,2.96-1.76,5.04v12.04h-2.52v-28.56Z"/>
      <path d="m364.44,385.44c0,2.11.53,3.92,1.6,5.44,1.25,1.79,2.99,2.68,5.2,2.68,3.44,0,5.6-1.76,6.48-5.28h2.52c-1.12,4.93-4.12,7.4-9,7.4-3.09,0-5.47-1.08-7.12-3.24-1.47-1.95-2.2-4.51-2.2-7.68s.73-5.51,2.2-7.48c1.68-2.29,4.05-3.44,7.12-3.44s5.45,1.21,7.08,3.64c1.44,2.11,2.11,4.76,2,7.96h-15.88Zm13.36-2.12c-.05-2-.65-3.69-1.8-5.08-1.23-1.52-2.81-2.28-4.76-2.28s-3.55.76-4.8,2.28c-1.09,1.33-1.76,3.03-2,5.08h13.36Zm-.8-11.68h-2.56l-3.4-4.08-3.52,4.08h-2.28l4.52-5.6h2.72l4.52,5.6Zm-.08-4.2h-2.04l4.16-5.64h3.12l-5.24,5.64Z"/>
    </g>
    <g>
      <path class="cls-3" d="m198.68,178.84c0-20.69,16.83-37.52,37.52-37.52,20.69,0,37.52,16.83,37.52,37.52,0,12.74-6.41,24.51-17.14,31.49l-1.63,1.06-1.63-1.07c-5.09-3.33-11.01-5.09-17.12-5.09-6.11,0-12.03,1.76-17.12,5.09l-1.63,1.07-1.63-1.06c-10.73-6.97-17.14-18.74-17.14-31.49Z"/>
      <path class="cls-2" d="m236.2,256.36c-4.51-.02-8.99-.43-13.38-1.19,2.43-8.36-1.82-17.37-10.1-20.74-8.28-3.37-17.65.1-21.8,7.76-7.7-5.28-14.52-11.92-20.07-19.78,7.67-4.2,11.07-13.57,7.6-21.78-3.46-8.21-12.56-12.36-20.94-9.86-1.75-9.44-1.73-18.94-.12-28.1,8.4,2.42,17.45-1.81,20.83-10.05,3.38-8.24-.1-17.57-7.8-21.7,5.3-7.66,11.98-14.46,19.87-19.97,4.22,7.63,13.63,11.01,21.88,7.57,8.25-3.45,12.42-12.5,9.9-20.84,4.7-.86,9.43-1.29,14.11-1.31,4.69.02,9.41.45,14.11,1.31-2.51,8.34,1.65,17.4,9.9,20.84,8.25,3.45,17.66.06,21.88-7.57,7.89,5.52,14.57,12.31,19.87,19.97-7.7,4.13-11.18,13.46-7.8,21.7,3.38,8.24,12.43,12.47,20.83,10.05,1.61,9.16,1.63,18.67-.12,28.1-8.38-2.5-17.48,1.65-20.94,9.86-3.46,8.21-.06,17.58,7.6,21.78-5.54,7.85-12.37,14.5-20.07,19.78-4.15-7.66-13.53-11.13-21.8-7.76-8.28,3.37-12.53,12.38-10.1,20.74-4.4.76-8.87,1.17-13.38,1.19"/>
      <circle class="cls-3" cx="236.2" cy="124.99" r="5.33" transform="translate(60.29 326.16) rotate(-76.72)"/>
      <circle class="cls-3" cx="287.57" cy="176.36" r="5.33" transform="translate(49.86 415.72) rotate(-76.72)"/>
      <circle class="cls-3" cx="236.2" cy="227.73" r="5.33" transform="translate(-39.7 405.29) rotate(-76.72)"/>
      <circle class="cls-3" cx="184.84" cy="176.36" r="5.33" transform="translate(-29.27 315.73) rotate(-76.72)"/>
    </g>
  </g>
</svg>